<?xml version="1.0" encoding="UTF-8" standalone="no"?>
<!-- Created with Inkscape (http://www.inkscape.org/) -->

<svg
   version="1.1"
   id="svg1"
   width="491.51999"
   height="437.25333"
   viewBox="0 0 491.51999 437.25333"
   sodipodi:docname="3_(11).eps"
   xmlns:inkscape="http://www.inkscape.org/namespaces/inkscape"
   xmlns:sodipodi="http://sodipodi.sourceforge.net/DTD/sodipodi-0.dtd"
   xmlns="http://www.w3.org/2000/svg"
   xmlns:svg="http://www.w3.org/2000/svg">
  <defs
     id="defs1" />
  <sodipodi:namedview
     id="namedview1"
     pagecolor="#ffffff"
     bordercolor="#000000"
     borderopacity="0.25"
     inkscape:showpageshadow="2"
     inkscape:pageopacity="0.0"
     inkscape:pagecheckerboard="0"
     inkscape:deskcolor="#d1d1d1">
    <inkscape:page
       x="0"
       y="0"
       inkscape:label="1"
       id="page1"
       width="491.51999"
       height="437.25333"
       margin="0"
       bleed="0" />
  </sodipodi:namedview>
  <g
     id="g1"
     inkscape:groupmode="layer"
     inkscape:label="1">
    <g
       id="group-R5">
      <path
         id="path2"
         d="M 2454.22,1397.04 H 3657.6 c 15.91,0 28.8,-12.89 28.8,-28.8 v 0 c 0,-163.15 -66.73,-311.45 -174.22,-418.939 -107.5,-107.5 -255.8,-174.231 -418.95,-174.231 h -74.64 c -163.15,0 -311.45,66.731 -418.95,174.231 -107.5,107.489 -174.22,255.789 -174.22,418.939 v 0 c 0,15.91 12.9,28.8 28.8,28.8"
         style="fill:#4a4b4c;fill-opacity:1;fill-rule:nonzero;stroke:none"
         transform="matrix(0.13333333,0,0,-0.13333333,0,437.25333)" />
      <path
         id="path3"
         d="M 3055.91,2442.9 2615.85,1346.83 c -11.77,-29.34 -45.43,-43.73 -74.78,-31.98 -29.35,11.77 -43.76,45.46 -31.98,74.81 l 493.43,1229.04 c 11.78,29.34 45.44,43.74 74.79,31.98 14.61,-5.86 26.12,-17.38 31.98,-31.98 l 493.45,-1229.04 c 11.78,-29.35 -2.64,-63.04 -31.98,-74.81 -29.35,-11.75 -63.01,2.64 -74.79,31.98 L 3055.91,2442.9"
         style="fill:#4a4b4c;fill-opacity:1;fill-rule:evenodd;stroke:none"
         transform="matrix(0.13333333,0,0,-0.13333333,0,437.25333)" />
      <path
         id="path4"
         d="M 28.8047,1397.04 H 1232.18 c 15.91,0 28.8,-12.89 28.8,-28.8 v 0 c 0,-163.15 -66.73,-311.45 -174.22,-418.939 C 979.262,841.801 830.961,775.07 667.809,775.07 h -74.633 c -163.153,0 -311.453,66.731 -418.953,174.231 C 66.7266,1056.79 0,1205.09 0,1368.24 v 0 c 0,15.91 12.8945,28.8 28.8047,28.8"
         style="fill:#4a4b4c;fill-opacity:1;fill-rule:nonzero;stroke:none"
         transform="matrix(0.13333333,0,0,-0.13333333,0,437.25333)" />
      <path
         id="path5"
         d="M 630.492,2442.9 190.434,1346.83 c -11.778,-29.34 -45.438,-43.73 -74.786,-31.98 -29.3511,11.77 -43.7613,45.46 -31.98,74.81 L 577.105,2618.7 c 11.782,29.34 45.446,43.74 74.79,31.98 14.605,-5.86 26.117,-17.38 31.984,-31.98 L 1177.31,1389.66 c 11.79,-29.35 -2.63,-63.04 -31.98,-74.81 -29.34,-11.75 -63.01,2.64 -74.78,31.98 L 630.492,2442.9"
         style="fill:#4a4b4c;fill-opacity:1;fill-rule:evenodd;stroke:none"
         transform="matrix(0.13333333,0,0,-0.13333333,0,437.25333)" />
      <path
         id="path6"
         d="m 660.867,2548.41 c -26.863,-16.68 -62.531,-8.37 -79.242,18.48 -16.715,26.86 -8.402,62.58 18.488,79.27 660.637,410.16 1810.637,419.43 2486.177,0 26.89,-16.69 35.2,-52.41 18.48,-79.27 -16.7,-26.85 -52.37,-35.16 -79.24,-18.48 -622.61,386.58 -1726.67,396.12 -2364.663,0"
         style="fill:#4a4b4c;fill-opacity:1;fill-rule:evenodd;stroke:none"
         transform="matrix(0.13333333,0,0,-0.13333333,0,437.25333)" />
      <path
         id="path7"
         d="M 2011.93,2779.21 V 546.629 H 1674.47 V 2779.21 c 112.13,6.73 225.34,6.74 337.46,0"
         style="fill:#4a4b4c;fill-opacity:1;fill-rule:nonzero;stroke:none"
         transform="matrix(0.13333333,0,0,-0.13333333,0,437.25333)" />
      <path
         id="path8"
         d="m 1298.31,489.031 h 1089.78 c 91.57,0 174.81,-51.761 235.14,-135.16 C 2683.55,270.461 2721,155.391 2721,28.8008 2721,12.8906 2711.67,0 2700.17,0 H 986.23 c -11.503,0 -20.832,12.8906 -20.832,28.8008 0,126.5902 37.452,241.6602 97.782,325.0702 60.33,83.399 143.56,135.16 235.13,135.16"
         style="fill:#4a4b4c;fill-opacity:1;fill-rule:nonzero;stroke:none"
         transform="matrix(0.13333333,0,0,-0.13333333,0,437.25333)" />
      <path
         id="path9"
         d="M 2011.93,3010.18 H 1673.4 v 99.96 c 0,93.09 76.17,169.26 169.27,169.26 v 0 c 93.1,0 169.26,-76.17 169.26,-169.26 v -99.96"
         style="fill:#4a4b4c;fill-opacity:1;fill-rule:evenodd;stroke:none"
         transform="matrix(0.13333333,0,0,-0.13333333,0,437.25333)" />
    </g>
  </g>
</svg>
